G04 MADE WITH FRITZING*
G04 WWW.FRITZING.ORG*
G04 DOUBLE SIDED*
G04 HOLES PLATED*
G04 CONTOUR ON CENTER OF CONTOUR VECTOR*
%ASAXBY*%
%FSLAX23Y23*%
%MOIN*%
%OFA0B0*%
%SFA1.0B1.0*%
%ADD10C,0.075000*%
%ADD11C,0.070000*%
%ADD12C,0.080000*%
%ADD13C,0.076139*%
%ADD14R,0.069958X0.070000*%
%ADD15C,0.024000*%
%ADD16R,0.001000X0.001000*%
%LNCOPPER0*%
G90*
G70*
G54D10*
X119Y1891D03*
X519Y1891D03*
G54D11*
X673Y1761D03*
X673Y1661D03*
X673Y1561D03*
X673Y1461D03*
X673Y1361D03*
X673Y1261D03*
X673Y1161D03*
X673Y1061D03*
X673Y961D03*
X673Y861D03*
X673Y761D03*
X673Y661D03*
X673Y561D03*
X673Y461D03*
X673Y361D03*
X1273Y1761D03*
X1273Y1661D03*
X1273Y1561D03*
X1273Y1461D03*
X1273Y1361D03*
X1273Y1261D03*
X1273Y1161D03*
X1273Y1061D03*
X1273Y961D03*
X1273Y861D03*
X1273Y761D03*
X1273Y661D03*
X1273Y561D03*
X1273Y461D03*
X1273Y361D03*
X873Y1856D03*
X873Y1756D03*
X973Y1856D03*
X973Y1756D03*
X1074Y1856D03*
X1074Y1756D03*
G54D12*
X1645Y1200D03*
X1645Y1055D03*
X1645Y911D03*
X238Y672D03*
X238Y817D03*
X238Y962D03*
X1537Y1672D03*
X1682Y1672D03*
X1827Y1672D03*
G54D13*
X228Y1279D03*
X228Y1416D03*
X228Y1554D03*
X228Y1692D03*
G54D12*
X1651Y597D03*
X1651Y453D03*
X1651Y308D03*
X237Y156D03*
X237Y308D03*
G54D14*
X673Y1761D03*
G54D15*
X268Y944D02*
X402Y866D01*
D02*
X404Y408D02*
X267Y326D01*
D02*
X402Y866D02*
X404Y408D01*
D02*
X654Y1439D02*
X261Y988D01*
D02*
X1482Y809D02*
X1480Y471D01*
D02*
X1480Y471D02*
X1626Y332D01*
D02*
X1615Y892D02*
X1482Y809D01*
D02*
X1463Y1310D02*
X1463Y1094D01*
D02*
X1463Y1094D02*
X1620Y935D01*
D02*
X1664Y1643D02*
X1463Y1310D01*
D02*
X1612Y1763D02*
X1661Y1700D01*
D02*
X1412Y1768D02*
X1612Y1763D01*
D02*
X1296Y1678D02*
X1412Y1768D01*
D02*
X1246Y1651D02*
X701Y1470D01*
G54D16*
X1497Y1713D02*
X1576Y1713D01*
X1497Y1712D02*
X1576Y1712D01*
X1497Y1711D02*
X1576Y1711D01*
X1497Y1710D02*
X1576Y1710D01*
X1497Y1709D02*
X1576Y1709D01*
X1497Y1708D02*
X1576Y1708D01*
X1497Y1707D02*
X1576Y1707D01*
X1497Y1706D02*
X1576Y1706D01*
X1497Y1705D02*
X1576Y1705D01*
X1497Y1704D02*
X1576Y1704D01*
X1497Y1703D02*
X1576Y1703D01*
X1497Y1702D02*
X1576Y1702D01*
X1497Y1701D02*
X1576Y1701D01*
X1497Y1700D02*
X1576Y1700D01*
X1497Y1699D02*
X1576Y1699D01*
X1497Y1698D02*
X1576Y1698D01*
X1497Y1697D02*
X1535Y1697D01*
X1537Y1697D02*
X1576Y1697D01*
X1497Y1696D02*
X1529Y1696D01*
X1543Y1696D02*
X1576Y1696D01*
X1497Y1695D02*
X1526Y1695D01*
X1546Y1695D02*
X1576Y1695D01*
X1497Y1694D02*
X1524Y1694D01*
X1548Y1694D02*
X1576Y1694D01*
X1497Y1693D02*
X1523Y1693D01*
X1550Y1693D02*
X1576Y1693D01*
X1497Y1692D02*
X1521Y1692D01*
X1551Y1692D02*
X1576Y1692D01*
X1497Y1691D02*
X1520Y1691D01*
X1552Y1691D02*
X1576Y1691D01*
X1497Y1690D02*
X1519Y1690D01*
X1553Y1690D02*
X1576Y1690D01*
X1497Y1689D02*
X1518Y1689D01*
X1554Y1689D02*
X1576Y1689D01*
X1497Y1688D02*
X1517Y1688D01*
X1555Y1688D02*
X1576Y1688D01*
X1497Y1687D02*
X1516Y1687D01*
X1556Y1687D02*
X1576Y1687D01*
X1497Y1686D02*
X1516Y1686D01*
X1557Y1686D02*
X1576Y1686D01*
X1497Y1685D02*
X1515Y1685D01*
X1557Y1685D02*
X1576Y1685D01*
X1497Y1684D02*
X1515Y1684D01*
X1558Y1684D02*
X1576Y1684D01*
X1497Y1683D02*
X1514Y1683D01*
X1558Y1683D02*
X1576Y1683D01*
X1497Y1682D02*
X1514Y1682D01*
X1559Y1682D02*
X1576Y1682D01*
X1497Y1681D02*
X1513Y1681D01*
X1559Y1681D02*
X1576Y1681D01*
X1497Y1680D02*
X1513Y1680D01*
X1559Y1680D02*
X1576Y1680D01*
X1497Y1679D02*
X1513Y1679D01*
X1560Y1679D02*
X1576Y1679D01*
X1497Y1678D02*
X1513Y1678D01*
X1560Y1678D02*
X1576Y1678D01*
X1497Y1677D02*
X1512Y1677D01*
X1560Y1677D02*
X1576Y1677D01*
X1497Y1676D02*
X1512Y1676D01*
X1560Y1676D02*
X1576Y1676D01*
X1497Y1675D02*
X1512Y1675D01*
X1560Y1675D02*
X1576Y1675D01*
X1497Y1674D02*
X1512Y1674D01*
X1560Y1674D02*
X1576Y1674D01*
X1497Y1673D02*
X1512Y1673D01*
X1560Y1673D02*
X1576Y1673D01*
X1497Y1672D02*
X1512Y1672D01*
X1560Y1672D02*
X1576Y1672D01*
X1497Y1671D02*
X1512Y1671D01*
X1560Y1671D02*
X1576Y1671D01*
X1497Y1670D02*
X1512Y1670D01*
X1560Y1670D02*
X1576Y1670D01*
X1497Y1669D02*
X1512Y1669D01*
X1560Y1669D02*
X1576Y1669D01*
X1497Y1668D02*
X1513Y1668D01*
X1560Y1668D02*
X1576Y1668D01*
X1497Y1667D02*
X1513Y1667D01*
X1559Y1667D02*
X1576Y1667D01*
X1497Y1666D02*
X1513Y1666D01*
X1559Y1666D02*
X1576Y1666D01*
X1497Y1665D02*
X1514Y1665D01*
X1559Y1665D02*
X1576Y1665D01*
X1497Y1664D02*
X1514Y1664D01*
X1558Y1664D02*
X1576Y1664D01*
X1497Y1663D02*
X1514Y1663D01*
X1558Y1663D02*
X1576Y1663D01*
X1497Y1662D02*
X1515Y1662D01*
X1557Y1662D02*
X1576Y1662D01*
X1497Y1661D02*
X1516Y1661D01*
X1557Y1661D02*
X1576Y1661D01*
X1497Y1660D02*
X1516Y1660D01*
X1556Y1660D02*
X1576Y1660D01*
X1497Y1659D02*
X1517Y1659D01*
X1555Y1659D02*
X1576Y1659D01*
X1497Y1658D02*
X1518Y1658D01*
X1555Y1658D02*
X1576Y1658D01*
X1497Y1657D02*
X1519Y1657D01*
X1554Y1657D02*
X1576Y1657D01*
X1497Y1656D02*
X1520Y1656D01*
X1553Y1656D02*
X1576Y1656D01*
X1497Y1655D02*
X1521Y1655D01*
X1551Y1655D02*
X1576Y1655D01*
X1497Y1654D02*
X1522Y1654D01*
X1550Y1654D02*
X1576Y1654D01*
X1497Y1653D02*
X1524Y1653D01*
X1549Y1653D02*
X1576Y1653D01*
X1497Y1652D02*
X1526Y1652D01*
X1547Y1652D02*
X1576Y1652D01*
X1497Y1651D02*
X1528Y1651D01*
X1544Y1651D02*
X1576Y1651D01*
X1497Y1650D02*
X1532Y1650D01*
X1540Y1650D02*
X1576Y1650D01*
X1497Y1649D02*
X1576Y1649D01*
X1497Y1648D02*
X1576Y1648D01*
X1497Y1647D02*
X1576Y1647D01*
X1497Y1646D02*
X1576Y1646D01*
X1497Y1645D02*
X1576Y1645D01*
X1497Y1644D02*
X1576Y1644D01*
X1497Y1643D02*
X1576Y1643D01*
X1497Y1642D02*
X1576Y1642D01*
X1497Y1641D02*
X1576Y1641D01*
X1497Y1640D02*
X1576Y1640D01*
X1497Y1639D02*
X1576Y1639D01*
X1497Y1638D02*
X1576Y1638D01*
X1497Y1637D02*
X1576Y1637D01*
X1497Y1636D02*
X1576Y1636D01*
X1497Y1635D02*
X1576Y1635D01*
X1497Y1634D02*
X1576Y1634D01*
X188Y1319D02*
X267Y1319D01*
X188Y1318D02*
X267Y1318D01*
X188Y1317D02*
X267Y1317D01*
X188Y1316D02*
X267Y1316D01*
X188Y1315D02*
X267Y1315D01*
X188Y1314D02*
X267Y1314D01*
X188Y1313D02*
X267Y1313D01*
X188Y1312D02*
X267Y1312D01*
X188Y1311D02*
X267Y1311D01*
X188Y1310D02*
X267Y1310D01*
X188Y1309D02*
X267Y1309D01*
X188Y1308D02*
X267Y1308D01*
X188Y1307D02*
X267Y1307D01*
X188Y1306D02*
X267Y1306D01*
X188Y1305D02*
X267Y1305D01*
X188Y1304D02*
X267Y1304D01*
X188Y1303D02*
X223Y1303D01*
X232Y1303D02*
X267Y1303D01*
X188Y1302D02*
X219Y1302D01*
X235Y1302D02*
X267Y1302D01*
X188Y1301D02*
X216Y1301D01*
X238Y1301D02*
X267Y1301D01*
X188Y1300D02*
X215Y1300D01*
X240Y1300D02*
X267Y1300D01*
X188Y1299D02*
X213Y1299D01*
X241Y1299D02*
X267Y1299D01*
X188Y1298D02*
X212Y1298D01*
X242Y1298D02*
X267Y1298D01*
X188Y1297D02*
X211Y1297D01*
X244Y1297D02*
X267Y1297D01*
X188Y1296D02*
X210Y1296D01*
X245Y1296D02*
X267Y1296D01*
X188Y1295D02*
X209Y1295D01*
X245Y1295D02*
X267Y1295D01*
X188Y1294D02*
X208Y1294D01*
X246Y1294D02*
X267Y1294D01*
X188Y1293D02*
X207Y1293D01*
X247Y1293D02*
X267Y1293D01*
X188Y1292D02*
X206Y1292D01*
X248Y1292D02*
X267Y1292D01*
X188Y1291D02*
X206Y1291D01*
X248Y1291D02*
X267Y1291D01*
X188Y1290D02*
X205Y1290D01*
X249Y1290D02*
X267Y1290D01*
X188Y1289D02*
X205Y1289D01*
X249Y1289D02*
X267Y1289D01*
X188Y1288D02*
X205Y1288D01*
X250Y1288D02*
X267Y1288D01*
X188Y1287D02*
X204Y1287D01*
X250Y1287D02*
X267Y1287D01*
X188Y1286D02*
X204Y1286D01*
X250Y1286D02*
X267Y1286D01*
X188Y1285D02*
X204Y1285D01*
X251Y1285D02*
X267Y1285D01*
X188Y1284D02*
X203Y1284D01*
X251Y1284D02*
X267Y1284D01*
X188Y1283D02*
X203Y1283D01*
X251Y1283D02*
X267Y1283D01*
X188Y1282D02*
X203Y1282D01*
X251Y1282D02*
X267Y1282D01*
X188Y1281D02*
X203Y1281D01*
X251Y1281D02*
X267Y1281D01*
X188Y1280D02*
X203Y1280D01*
X251Y1280D02*
X267Y1280D01*
X188Y1279D02*
X203Y1279D01*
X251Y1279D02*
X267Y1279D01*
X188Y1278D02*
X203Y1278D01*
X251Y1278D02*
X267Y1278D01*
X188Y1277D02*
X203Y1277D01*
X251Y1277D02*
X267Y1277D01*
X188Y1276D02*
X203Y1276D01*
X251Y1276D02*
X267Y1276D01*
X188Y1275D02*
X203Y1275D01*
X251Y1275D02*
X267Y1275D01*
X188Y1274D02*
X204Y1274D01*
X250Y1274D02*
X267Y1274D01*
X188Y1273D02*
X204Y1273D01*
X250Y1273D02*
X267Y1273D01*
X188Y1272D02*
X204Y1272D01*
X250Y1272D02*
X267Y1272D01*
X188Y1271D02*
X205Y1271D01*
X249Y1271D02*
X267Y1271D01*
X188Y1270D02*
X205Y1270D01*
X249Y1270D02*
X267Y1270D01*
X188Y1269D02*
X206Y1269D01*
X248Y1269D02*
X267Y1269D01*
X188Y1268D02*
X206Y1268D01*
X248Y1268D02*
X267Y1268D01*
X188Y1267D02*
X207Y1267D01*
X247Y1267D02*
X267Y1267D01*
X188Y1266D02*
X207Y1266D01*
X247Y1266D02*
X267Y1266D01*
X188Y1265D02*
X208Y1265D01*
X246Y1265D02*
X267Y1265D01*
X188Y1264D02*
X209Y1264D01*
X245Y1264D02*
X267Y1264D01*
X188Y1263D02*
X210Y1263D01*
X244Y1263D02*
X267Y1263D01*
X188Y1262D02*
X211Y1262D01*
X243Y1262D02*
X267Y1262D01*
X188Y1261D02*
X212Y1261D01*
X242Y1261D02*
X267Y1261D01*
X188Y1260D02*
X214Y1260D01*
X240Y1260D02*
X267Y1260D01*
X188Y1259D02*
X216Y1259D01*
X239Y1259D02*
X267Y1259D01*
X188Y1258D02*
X218Y1258D01*
X237Y1258D02*
X267Y1258D01*
X188Y1257D02*
X221Y1257D01*
X233Y1257D02*
X267Y1257D01*
X188Y1256D02*
X267Y1256D01*
X188Y1255D02*
X267Y1255D01*
X188Y1254D02*
X267Y1254D01*
X188Y1253D02*
X267Y1253D01*
X188Y1252D02*
X267Y1252D01*
X188Y1251D02*
X267Y1251D01*
X188Y1250D02*
X267Y1250D01*
X188Y1249D02*
X267Y1249D01*
X188Y1248D02*
X267Y1248D01*
X188Y1247D02*
X267Y1247D01*
X188Y1246D02*
X267Y1246D01*
X188Y1245D02*
X267Y1245D01*
X188Y1244D02*
X267Y1244D01*
X188Y1243D02*
X267Y1243D01*
X188Y1242D02*
X267Y1242D01*
X188Y1241D02*
X267Y1241D01*
X1604Y1241D02*
X1683Y1241D01*
X188Y1240D02*
X266Y1240D01*
X1604Y1240D02*
X1683Y1240D01*
X1604Y1239D02*
X1683Y1239D01*
X1604Y1238D02*
X1683Y1238D01*
X1604Y1237D02*
X1683Y1237D01*
X1604Y1236D02*
X1683Y1236D01*
X1604Y1235D02*
X1683Y1235D01*
X1604Y1234D02*
X1683Y1234D01*
X1604Y1233D02*
X1683Y1233D01*
X1604Y1232D02*
X1683Y1232D01*
X1604Y1231D02*
X1683Y1231D01*
X1604Y1230D02*
X1683Y1230D01*
X1604Y1229D02*
X1683Y1229D01*
X1604Y1228D02*
X1683Y1228D01*
X1604Y1227D02*
X1683Y1227D01*
X1604Y1226D02*
X1683Y1226D01*
X1604Y1225D02*
X1642Y1225D01*
X1645Y1225D02*
X1683Y1225D01*
X1604Y1224D02*
X1636Y1224D01*
X1651Y1224D02*
X1683Y1224D01*
X1604Y1223D02*
X1633Y1223D01*
X1654Y1223D02*
X1683Y1223D01*
X1604Y1222D02*
X1631Y1222D01*
X1656Y1222D02*
X1683Y1222D01*
X1604Y1221D02*
X1630Y1221D01*
X1657Y1221D02*
X1683Y1221D01*
X1604Y1220D02*
X1628Y1220D01*
X1659Y1220D02*
X1683Y1220D01*
X1604Y1219D02*
X1627Y1219D01*
X1660Y1219D02*
X1683Y1219D01*
X1604Y1218D02*
X1626Y1218D01*
X1661Y1218D02*
X1683Y1218D01*
X1604Y1217D02*
X1625Y1217D01*
X1662Y1217D02*
X1683Y1217D01*
X1604Y1216D02*
X1624Y1216D01*
X1663Y1216D02*
X1683Y1216D01*
X1604Y1215D02*
X1624Y1215D01*
X1663Y1215D02*
X1683Y1215D01*
X1604Y1214D02*
X1623Y1214D01*
X1664Y1214D02*
X1683Y1214D01*
X1604Y1213D02*
X1622Y1213D01*
X1665Y1213D02*
X1683Y1213D01*
X1604Y1212D02*
X1622Y1212D01*
X1665Y1212D02*
X1683Y1212D01*
X1604Y1211D02*
X1621Y1211D01*
X1666Y1211D02*
X1683Y1211D01*
X1604Y1210D02*
X1621Y1210D01*
X1666Y1210D02*
X1683Y1210D01*
X1604Y1209D02*
X1621Y1209D01*
X1666Y1209D02*
X1683Y1209D01*
X1604Y1208D02*
X1620Y1208D01*
X1667Y1208D02*
X1683Y1208D01*
X1604Y1207D02*
X1620Y1207D01*
X1667Y1207D02*
X1683Y1207D01*
X1604Y1206D02*
X1620Y1206D01*
X1667Y1206D02*
X1683Y1206D01*
X1604Y1205D02*
X1620Y1205D01*
X1667Y1205D02*
X1683Y1205D01*
X1604Y1204D02*
X1620Y1204D01*
X1668Y1204D02*
X1683Y1204D01*
X1604Y1203D02*
X1620Y1203D01*
X1668Y1203D02*
X1683Y1203D01*
X1604Y1202D02*
X1619Y1202D01*
X1668Y1202D02*
X1683Y1202D01*
X1604Y1201D02*
X1619Y1201D01*
X1668Y1201D02*
X1683Y1201D01*
X1604Y1200D02*
X1620Y1200D01*
X1668Y1200D02*
X1683Y1200D01*
X1604Y1199D02*
X1620Y1199D01*
X1668Y1199D02*
X1683Y1199D01*
X1604Y1198D02*
X1620Y1198D01*
X1667Y1198D02*
X1683Y1198D01*
X1604Y1197D02*
X1620Y1197D01*
X1667Y1197D02*
X1683Y1197D01*
X1604Y1196D02*
X1620Y1196D01*
X1667Y1196D02*
X1683Y1196D01*
X1604Y1195D02*
X1620Y1195D01*
X1667Y1195D02*
X1683Y1195D01*
X1604Y1194D02*
X1621Y1194D01*
X1666Y1194D02*
X1683Y1194D01*
X1604Y1193D02*
X1621Y1193D01*
X1666Y1193D02*
X1683Y1193D01*
X1604Y1192D02*
X1621Y1192D01*
X1666Y1192D02*
X1683Y1192D01*
X1604Y1191D02*
X1622Y1191D01*
X1665Y1191D02*
X1683Y1191D01*
X1604Y1190D02*
X1622Y1190D01*
X1665Y1190D02*
X1683Y1190D01*
X1604Y1189D02*
X1623Y1189D01*
X1664Y1189D02*
X1683Y1189D01*
X1604Y1188D02*
X1624Y1188D01*
X1663Y1188D02*
X1683Y1188D01*
X1604Y1187D02*
X1624Y1187D01*
X1663Y1187D02*
X1683Y1187D01*
X1604Y1186D02*
X1625Y1186D01*
X1662Y1186D02*
X1683Y1186D01*
X1604Y1185D02*
X1626Y1185D01*
X1661Y1185D02*
X1683Y1185D01*
X1604Y1184D02*
X1627Y1184D01*
X1660Y1184D02*
X1683Y1184D01*
X1604Y1183D02*
X1628Y1183D01*
X1659Y1183D02*
X1683Y1183D01*
X1604Y1182D02*
X1630Y1182D01*
X1657Y1182D02*
X1683Y1182D01*
X1604Y1181D02*
X1631Y1181D01*
X1656Y1181D02*
X1683Y1181D01*
X1604Y1180D02*
X1633Y1180D01*
X1654Y1180D02*
X1683Y1180D01*
X1604Y1179D02*
X1636Y1179D01*
X1651Y1179D02*
X1683Y1179D01*
X1604Y1178D02*
X1640Y1178D01*
X1647Y1178D02*
X1683Y1178D01*
X1604Y1177D02*
X1683Y1177D01*
X1604Y1176D02*
X1683Y1176D01*
X1604Y1175D02*
X1683Y1175D01*
X1604Y1174D02*
X1683Y1174D01*
X1604Y1173D02*
X1683Y1173D01*
X1604Y1172D02*
X1683Y1172D01*
X1604Y1171D02*
X1683Y1171D01*
X1604Y1170D02*
X1683Y1170D01*
X1604Y1169D02*
X1683Y1169D01*
X1604Y1168D02*
X1683Y1168D01*
X1604Y1167D02*
X1683Y1167D01*
X1604Y1166D02*
X1683Y1166D01*
X1604Y1165D02*
X1683Y1165D01*
X1604Y1164D02*
X1683Y1164D01*
X1604Y1163D02*
X1683Y1163D01*
X1604Y1162D02*
X1683Y1162D01*
X198Y713D02*
X277Y713D01*
X198Y712D02*
X277Y712D01*
X198Y711D02*
X277Y711D01*
X198Y710D02*
X277Y710D01*
X198Y709D02*
X277Y709D01*
X198Y708D02*
X277Y708D01*
X198Y707D02*
X277Y707D01*
X198Y706D02*
X277Y706D01*
X198Y705D02*
X277Y705D01*
X198Y704D02*
X277Y704D01*
X198Y703D02*
X277Y703D01*
X198Y702D02*
X277Y702D01*
X198Y701D02*
X277Y701D01*
X198Y700D02*
X277Y700D01*
X198Y699D02*
X277Y699D01*
X198Y698D02*
X277Y698D01*
X198Y697D02*
X234Y697D01*
X242Y697D02*
X277Y697D01*
X198Y696D02*
X230Y696D01*
X246Y696D02*
X277Y696D01*
X198Y695D02*
X227Y695D01*
X248Y695D02*
X277Y695D01*
X198Y694D02*
X225Y694D01*
X250Y694D02*
X277Y694D01*
X198Y693D02*
X224Y693D01*
X252Y693D02*
X277Y693D01*
X198Y692D02*
X222Y692D01*
X253Y692D02*
X277Y692D01*
X198Y691D02*
X221Y691D01*
X254Y691D02*
X277Y691D01*
X198Y690D02*
X220Y690D01*
X255Y690D02*
X277Y690D01*
X198Y689D02*
X219Y689D01*
X256Y689D02*
X277Y689D01*
X198Y688D02*
X219Y688D01*
X257Y688D02*
X277Y688D01*
X198Y687D02*
X218Y687D01*
X258Y687D02*
X277Y687D01*
X198Y686D02*
X217Y686D01*
X258Y686D02*
X277Y686D01*
X198Y685D02*
X217Y685D01*
X259Y685D02*
X277Y685D01*
X198Y684D02*
X216Y684D01*
X260Y684D02*
X277Y684D01*
X198Y683D02*
X216Y683D01*
X260Y683D02*
X277Y683D01*
X198Y682D02*
X215Y682D01*
X260Y682D02*
X277Y682D01*
X198Y681D02*
X215Y681D01*
X261Y681D02*
X277Y681D01*
X198Y680D02*
X215Y680D01*
X261Y680D02*
X277Y680D01*
X198Y679D02*
X214Y679D01*
X261Y679D02*
X277Y679D01*
X198Y678D02*
X214Y678D01*
X262Y678D02*
X277Y678D01*
X198Y677D02*
X214Y677D01*
X262Y677D02*
X277Y677D01*
X198Y676D02*
X214Y676D01*
X262Y676D02*
X277Y676D01*
X198Y675D02*
X214Y675D01*
X262Y675D02*
X277Y675D01*
X198Y674D02*
X214Y674D01*
X262Y674D02*
X277Y674D01*
X198Y673D02*
X214Y673D01*
X262Y673D02*
X277Y673D01*
X198Y672D02*
X214Y672D01*
X262Y672D02*
X277Y672D01*
X198Y671D02*
X214Y671D01*
X262Y671D02*
X277Y671D01*
X198Y670D02*
X214Y670D01*
X262Y670D02*
X277Y670D01*
X198Y669D02*
X214Y669D01*
X261Y669D02*
X277Y669D01*
X198Y668D02*
X214Y668D01*
X261Y668D02*
X277Y668D01*
X198Y667D02*
X215Y667D01*
X261Y667D02*
X277Y667D01*
X198Y666D02*
X215Y666D01*
X261Y666D02*
X277Y666D01*
X198Y665D02*
X215Y665D01*
X260Y665D02*
X277Y665D01*
X198Y664D02*
X216Y664D01*
X260Y664D02*
X277Y664D01*
X198Y663D02*
X216Y663D01*
X259Y663D02*
X277Y663D01*
X198Y662D02*
X217Y662D01*
X259Y662D02*
X277Y662D01*
X198Y661D02*
X217Y661D01*
X258Y661D02*
X277Y661D01*
X198Y660D02*
X218Y660D01*
X258Y660D02*
X277Y660D01*
X198Y659D02*
X219Y659D01*
X257Y659D02*
X277Y659D01*
X198Y658D02*
X220Y658D01*
X256Y658D02*
X277Y658D01*
X198Y657D02*
X221Y657D01*
X255Y657D02*
X277Y657D01*
X198Y656D02*
X222Y656D01*
X254Y656D02*
X277Y656D01*
X198Y655D02*
X223Y655D01*
X253Y655D02*
X277Y655D01*
X198Y654D02*
X224Y654D01*
X251Y654D02*
X277Y654D01*
X198Y653D02*
X226Y653D01*
X250Y653D02*
X277Y653D01*
X198Y652D02*
X228Y652D01*
X248Y652D02*
X277Y652D01*
X198Y651D02*
X231Y651D01*
X245Y651D02*
X277Y651D01*
X198Y650D02*
X277Y650D01*
X198Y649D02*
X277Y649D01*
X198Y648D02*
X277Y648D01*
X198Y647D02*
X277Y647D01*
X198Y646D02*
X277Y646D01*
X198Y645D02*
X277Y645D01*
X198Y644D02*
X277Y644D01*
X198Y643D02*
X277Y643D01*
X198Y642D02*
X277Y642D01*
X198Y641D02*
X277Y641D01*
X198Y640D02*
X277Y640D01*
X198Y639D02*
X277Y639D01*
X198Y638D02*
X277Y638D01*
X1611Y638D02*
X1689Y638D01*
X198Y637D02*
X277Y637D01*
X1611Y637D02*
X1689Y637D01*
X198Y636D02*
X277Y636D01*
X1611Y636D02*
X1689Y636D01*
X198Y635D02*
X277Y635D01*
X1611Y635D02*
X1689Y635D01*
X198Y634D02*
X277Y634D01*
X1611Y634D02*
X1689Y634D01*
X1611Y633D02*
X1689Y633D01*
X1611Y632D02*
X1689Y632D01*
X1611Y631D02*
X1689Y631D01*
X1611Y630D02*
X1689Y630D01*
X1611Y629D02*
X1689Y629D01*
X1611Y628D02*
X1689Y628D01*
X1611Y627D02*
X1689Y627D01*
X1611Y626D02*
X1689Y626D01*
X1611Y625D02*
X1689Y625D01*
X1611Y624D02*
X1689Y624D01*
X1611Y623D02*
X1689Y623D01*
X1611Y622D02*
X1646Y622D01*
X1654Y622D02*
X1689Y622D01*
X1611Y621D02*
X1642Y621D01*
X1658Y621D02*
X1689Y621D01*
X1611Y620D02*
X1639Y620D01*
X1661Y620D02*
X1689Y620D01*
X1611Y619D02*
X1638Y619D01*
X1662Y619D02*
X1689Y619D01*
X1611Y618D02*
X1636Y618D01*
X1664Y618D02*
X1689Y618D01*
X1611Y617D02*
X1635Y617D01*
X1665Y617D02*
X1689Y617D01*
X1611Y616D02*
X1633Y616D01*
X1667Y616D02*
X1689Y616D01*
X1611Y615D02*
X1632Y615D01*
X1668Y615D02*
X1689Y615D01*
X1611Y614D02*
X1632Y614D01*
X1668Y614D02*
X1689Y614D01*
X1611Y613D02*
X1631Y613D01*
X1669Y613D02*
X1689Y613D01*
X1611Y612D02*
X1630Y612D01*
X1670Y612D02*
X1689Y612D01*
X1611Y611D02*
X1629Y611D01*
X1671Y611D02*
X1689Y611D01*
X1611Y610D02*
X1629Y610D01*
X1671Y610D02*
X1689Y610D01*
X1611Y609D02*
X1628Y609D01*
X1672Y609D02*
X1689Y609D01*
X1611Y608D02*
X1628Y608D01*
X1672Y608D02*
X1689Y608D01*
X1611Y607D02*
X1627Y607D01*
X1673Y607D02*
X1689Y607D01*
X1611Y606D02*
X1627Y606D01*
X1673Y606D02*
X1689Y606D01*
X1611Y605D02*
X1627Y605D01*
X1673Y605D02*
X1689Y605D01*
X1611Y604D02*
X1626Y604D01*
X1674Y604D02*
X1689Y604D01*
X1611Y603D02*
X1626Y603D01*
X1674Y603D02*
X1689Y603D01*
X1611Y602D02*
X1626Y602D01*
X1674Y602D02*
X1689Y602D01*
X1611Y601D02*
X1626Y601D01*
X1674Y601D02*
X1689Y601D01*
X1611Y600D02*
X1626Y600D01*
X1674Y600D02*
X1689Y600D01*
X1611Y599D02*
X1626Y599D01*
X1674Y599D02*
X1689Y599D01*
X1611Y598D02*
X1626Y598D01*
X1674Y598D02*
X1689Y598D01*
X1611Y597D02*
X1626Y597D01*
X1674Y597D02*
X1689Y597D01*
X1611Y596D02*
X1626Y596D01*
X1674Y596D02*
X1689Y596D01*
X1611Y595D02*
X1626Y595D01*
X1674Y595D02*
X1689Y595D01*
X1611Y594D02*
X1626Y594D01*
X1674Y594D02*
X1689Y594D01*
X1611Y593D02*
X1627Y593D01*
X1673Y593D02*
X1689Y593D01*
X1611Y592D02*
X1627Y592D01*
X1673Y592D02*
X1689Y592D01*
X1611Y591D02*
X1627Y591D01*
X1673Y591D02*
X1689Y591D01*
X1611Y590D02*
X1628Y590D01*
X1672Y590D02*
X1689Y590D01*
X1611Y589D02*
X1628Y589D01*
X1672Y589D02*
X1689Y589D01*
X1611Y588D02*
X1628Y588D01*
X1672Y588D02*
X1689Y588D01*
X1611Y587D02*
X1629Y587D01*
X1671Y587D02*
X1689Y587D01*
X1611Y586D02*
X1630Y586D01*
X1670Y586D02*
X1689Y586D01*
X1611Y585D02*
X1630Y585D01*
X1670Y585D02*
X1689Y585D01*
X1611Y584D02*
X1631Y584D01*
X1669Y584D02*
X1689Y584D01*
X1611Y583D02*
X1632Y583D01*
X1668Y583D02*
X1689Y583D01*
X1611Y582D02*
X1633Y582D01*
X1667Y582D02*
X1689Y582D01*
X1611Y581D02*
X1634Y581D01*
X1666Y581D02*
X1689Y581D01*
X1611Y580D02*
X1635Y580D01*
X1665Y580D02*
X1689Y580D01*
X1611Y579D02*
X1636Y579D01*
X1664Y579D02*
X1689Y579D01*
X1611Y578D02*
X1638Y578D01*
X1662Y578D02*
X1689Y578D01*
X1611Y577D02*
X1640Y577D01*
X1660Y577D02*
X1689Y577D01*
X1611Y576D02*
X1643Y576D01*
X1657Y576D02*
X1689Y576D01*
X1611Y575D02*
X1689Y575D01*
X1611Y574D02*
X1689Y574D01*
X1611Y573D02*
X1689Y573D01*
X1611Y572D02*
X1689Y572D01*
X1611Y571D02*
X1689Y571D01*
X1611Y570D02*
X1689Y570D01*
X1611Y569D02*
X1689Y569D01*
X1611Y568D02*
X1689Y568D01*
X1611Y567D02*
X1689Y567D01*
X1611Y566D02*
X1689Y566D01*
X1611Y565D02*
X1689Y565D01*
X1611Y564D02*
X1689Y564D01*
X1611Y563D02*
X1689Y563D01*
X1611Y562D02*
X1689Y562D01*
X1611Y561D02*
X1689Y561D01*
X1611Y560D02*
X1689Y560D01*
X1611Y559D02*
X1689Y559D01*
X197Y197D02*
X276Y197D01*
X197Y196D02*
X276Y196D01*
X197Y195D02*
X276Y195D01*
X197Y194D02*
X276Y194D01*
X197Y193D02*
X276Y193D01*
X197Y192D02*
X276Y192D01*
X197Y191D02*
X276Y191D01*
X197Y190D02*
X276Y190D01*
X197Y189D02*
X276Y189D01*
X197Y188D02*
X276Y188D01*
X197Y187D02*
X276Y187D01*
X197Y186D02*
X276Y186D01*
X197Y185D02*
X276Y185D01*
X197Y184D02*
X276Y184D01*
X197Y183D02*
X276Y183D01*
X197Y182D02*
X276Y182D01*
X197Y181D02*
X231Y181D01*
X241Y181D02*
X276Y181D01*
X197Y180D02*
X228Y180D01*
X245Y180D02*
X276Y180D01*
X197Y179D02*
X226Y179D01*
X247Y179D02*
X276Y179D01*
X197Y178D02*
X224Y178D01*
X249Y178D02*
X276Y178D01*
X197Y177D02*
X222Y177D01*
X251Y177D02*
X276Y177D01*
X197Y176D02*
X221Y176D01*
X252Y176D02*
X276Y176D01*
X197Y175D02*
X220Y175D01*
X253Y175D02*
X276Y175D01*
X197Y174D02*
X219Y174D01*
X254Y174D02*
X276Y174D01*
X197Y173D02*
X218Y173D01*
X255Y173D02*
X276Y173D01*
X197Y172D02*
X217Y172D01*
X256Y172D02*
X276Y172D01*
X197Y171D02*
X216Y171D01*
X256Y171D02*
X276Y171D01*
X197Y170D02*
X216Y170D01*
X257Y170D02*
X276Y170D01*
X197Y169D02*
X215Y169D01*
X258Y169D02*
X276Y169D01*
X197Y168D02*
X215Y168D01*
X258Y168D02*
X276Y168D01*
X197Y167D02*
X214Y167D01*
X259Y167D02*
X276Y167D01*
X197Y166D02*
X214Y166D01*
X259Y166D02*
X276Y166D01*
X197Y165D02*
X214Y165D01*
X259Y165D02*
X276Y165D01*
X197Y164D02*
X213Y164D01*
X260Y164D02*
X276Y164D01*
X197Y163D02*
X213Y163D01*
X260Y163D02*
X276Y163D01*
X197Y162D02*
X213Y162D01*
X260Y162D02*
X276Y162D01*
X197Y161D02*
X213Y161D01*
X260Y161D02*
X276Y161D01*
X197Y160D02*
X212Y160D01*
X260Y160D02*
X276Y160D01*
X197Y159D02*
X212Y159D01*
X260Y159D02*
X276Y159D01*
X197Y158D02*
X212Y158D01*
X260Y158D02*
X276Y158D01*
X197Y157D02*
X212Y157D01*
X260Y157D02*
X276Y157D01*
X197Y156D02*
X212Y156D01*
X260Y156D02*
X276Y156D01*
X197Y155D02*
X212Y155D01*
X260Y155D02*
X276Y155D01*
X197Y154D02*
X213Y154D01*
X260Y154D02*
X276Y154D01*
X197Y153D02*
X213Y153D01*
X260Y153D02*
X276Y153D01*
X197Y152D02*
X213Y152D01*
X260Y152D02*
X276Y152D01*
X197Y151D02*
X213Y151D01*
X259Y151D02*
X276Y151D01*
X197Y150D02*
X214Y150D01*
X259Y150D02*
X276Y150D01*
X197Y149D02*
X214Y149D01*
X259Y149D02*
X276Y149D01*
X197Y148D02*
X214Y148D01*
X258Y148D02*
X276Y148D01*
X197Y147D02*
X215Y147D01*
X258Y147D02*
X276Y147D01*
X197Y146D02*
X216Y146D01*
X257Y146D02*
X276Y146D01*
X197Y145D02*
X216Y145D01*
X257Y145D02*
X276Y145D01*
X197Y144D02*
X217Y144D01*
X256Y144D02*
X276Y144D01*
X197Y143D02*
X218Y143D01*
X255Y143D02*
X276Y143D01*
X197Y142D02*
X218Y142D01*
X254Y142D02*
X276Y142D01*
X197Y141D02*
X219Y141D01*
X253Y141D02*
X276Y141D01*
X197Y140D02*
X221Y140D01*
X252Y140D02*
X276Y140D01*
X197Y139D02*
X222Y139D01*
X251Y139D02*
X276Y139D01*
X197Y138D02*
X223Y138D01*
X250Y138D02*
X276Y138D01*
X197Y137D02*
X225Y137D01*
X248Y137D02*
X276Y137D01*
X197Y136D02*
X227Y136D01*
X246Y136D02*
X276Y136D01*
X197Y135D02*
X230Y135D01*
X243Y135D02*
X276Y135D01*
X197Y134D02*
X276Y134D01*
X197Y133D02*
X276Y133D01*
X197Y132D02*
X276Y132D01*
X197Y131D02*
X276Y131D01*
X197Y130D02*
X276Y130D01*
X197Y129D02*
X276Y129D01*
X197Y128D02*
X276Y128D01*
X197Y127D02*
X276Y127D01*
X197Y126D02*
X276Y126D01*
X197Y125D02*
X276Y125D01*
X197Y124D02*
X276Y124D01*
X197Y123D02*
X276Y123D01*
X197Y122D02*
X276Y122D01*
X197Y121D02*
X276Y121D01*
X197Y120D02*
X276Y120D01*
X197Y119D02*
X276Y119D01*
X197Y118D02*
X276Y118D01*
D02*
G04 End of Copper0*
M02*