; NON-PLATED HOLES START AT T1
; THROUGH (PLATED) HOLES START AT T100
M48
INCH
T100C0.051139
T101C0.036000
T102C0.047244
T103C0.035000
%
T100
X002276Y012785
X002276Y014163
X002276Y016919
X002276Y015541
T101
X012732Y017606
X010736Y018562
X006732Y013606
X012732Y008606
X012732Y016606
X009734Y018562
X006732Y016606
X008734Y018562
X006732Y008606
X006732Y009606
X012732Y009606
X006732Y014606
X006732Y005606
X012732Y007606
X006732Y006606
X012732Y014606
X012732Y004606
X006732Y017606
X008734Y017562
X012732Y012606
X012732Y015606
X012732Y011606
X006732Y004606
X012732Y006606
X006732Y012606
X006732Y007606
X006732Y003606
X006732Y010606
X006732Y015606
X009734Y017562
X012732Y005606
X012732Y010606
X012732Y003606
X006732Y011606
X012732Y013606
X010736Y017562
T102
X016509Y004525
X016818Y016723
X018266Y016723
X016445Y012002
X016509Y003077
X016445Y009106
X002369Y001563
X015370Y016723
X002369Y003081
X002383Y009619
X016509Y005973
X016445Y010554
X002383Y008171
X002383Y006723
T103
X001194Y018908
X005194Y018908
T00
M30
