G04 MADE WITH FRITZING*
G04 WWW.FRITZING.ORG*
G04 DOUBLE SIDED*
G04 HOLES PLATED*
G04 CONTOUR ON CENTER OF CONTOUR VECTOR*
%ASAXBY*%
%FSLAX23Y23*%
%MOIN*%
%OFA0B0*%
%SFA1.0B1.0*%
%ADD10C,0.085000*%
%ADD11C,0.090000*%
%ADD12C,0.086139*%
%ADD13C,0.080000*%
%ADD14R,0.079958X0.080000*%
%ADD15R,0.001000X0.001000*%
%LNMASK1*%
G90*
G70*
G54D10*
X119Y1891D03*
X519Y1891D03*
G54D11*
X1645Y1200D03*
X1645Y1055D03*
X1645Y911D03*
X1645Y1200D03*
X1645Y1055D03*
X1645Y911D03*
X238Y672D03*
X238Y817D03*
X238Y962D03*
X238Y672D03*
X238Y817D03*
X238Y962D03*
X1537Y1672D03*
X1682Y1672D03*
X1827Y1672D03*
X1537Y1672D03*
X1682Y1672D03*
X1827Y1672D03*
G54D12*
X228Y1279D03*
X228Y1416D03*
X228Y1554D03*
X228Y1692D03*
G54D11*
X1651Y597D03*
X1651Y453D03*
X1651Y308D03*
X1651Y597D03*
X1651Y453D03*
X1651Y308D03*
X237Y156D03*
X237Y308D03*
X237Y156D03*
X237Y308D03*
G54D13*
X673Y1761D03*
X673Y1661D03*
X673Y1561D03*
X673Y1461D03*
X673Y1361D03*
X673Y1261D03*
X673Y1161D03*
X673Y1061D03*
X673Y961D03*
X673Y861D03*
X673Y761D03*
X673Y661D03*
X673Y561D03*
X673Y461D03*
X673Y361D03*
X1273Y1761D03*
X1273Y1661D03*
X1273Y1561D03*
X1273Y1461D03*
X1273Y1361D03*
X1273Y1261D03*
X1273Y1161D03*
X1273Y1061D03*
X1273Y961D03*
X1273Y861D03*
X1273Y761D03*
X1273Y661D03*
X1273Y561D03*
X1273Y461D03*
X1273Y361D03*
X873Y1856D03*
X873Y1756D03*
X973Y1856D03*
X973Y1756D03*
X1074Y1856D03*
X1074Y1756D03*
G54D14*
X673Y1761D03*
G54D15*
X1492Y1718D02*
X1581Y1718D01*
X1492Y1717D02*
X1581Y1717D01*
X1492Y1716D02*
X1581Y1716D01*
X1492Y1715D02*
X1581Y1715D01*
X1492Y1714D02*
X1581Y1714D01*
X1492Y1713D02*
X1581Y1713D01*
X1492Y1712D02*
X1581Y1712D01*
X1492Y1711D02*
X1581Y1711D01*
X1492Y1710D02*
X1581Y1710D01*
X1492Y1709D02*
X1581Y1709D01*
X1492Y1708D02*
X1581Y1708D01*
X1492Y1707D02*
X1581Y1707D01*
X1492Y1706D02*
X1581Y1706D01*
X1492Y1705D02*
X1581Y1705D01*
X1492Y1704D02*
X1581Y1704D01*
X1492Y1703D02*
X1581Y1703D01*
X1492Y1702D02*
X1581Y1702D01*
X1492Y1701D02*
X1581Y1701D01*
X1492Y1700D02*
X1581Y1700D01*
X1492Y1699D02*
X1581Y1699D01*
X1492Y1698D02*
X1581Y1698D01*
X1492Y1697D02*
X1581Y1697D01*
X1492Y1696D02*
X1581Y1696D01*
X1492Y1695D02*
X1581Y1695D01*
X1492Y1694D02*
X1581Y1694D01*
X1492Y1693D02*
X1581Y1693D01*
X1492Y1692D02*
X1533Y1692D01*
X1539Y1692D02*
X1581Y1692D01*
X1492Y1691D02*
X1529Y1691D01*
X1543Y1691D02*
X1581Y1691D01*
X1492Y1690D02*
X1527Y1690D01*
X1545Y1690D02*
X1581Y1690D01*
X1492Y1689D02*
X1525Y1689D01*
X1547Y1689D02*
X1581Y1689D01*
X1492Y1688D02*
X1524Y1688D01*
X1548Y1688D02*
X1581Y1688D01*
X1492Y1687D02*
X1523Y1687D01*
X1549Y1687D02*
X1581Y1687D01*
X1492Y1686D02*
X1522Y1686D01*
X1550Y1686D02*
X1581Y1686D01*
X1492Y1685D02*
X1521Y1685D01*
X1551Y1685D02*
X1581Y1685D01*
X1492Y1684D02*
X1520Y1684D01*
X1552Y1684D02*
X1581Y1684D01*
X1492Y1683D02*
X1520Y1683D01*
X1553Y1683D02*
X1581Y1683D01*
X1492Y1682D02*
X1519Y1682D01*
X1553Y1682D02*
X1581Y1682D01*
X1492Y1681D02*
X1519Y1681D01*
X1554Y1681D02*
X1581Y1681D01*
X1492Y1680D02*
X1518Y1680D01*
X1554Y1680D02*
X1581Y1680D01*
X1492Y1679D02*
X1518Y1679D01*
X1554Y1679D02*
X1581Y1679D01*
X1492Y1678D02*
X1518Y1678D01*
X1555Y1678D02*
X1581Y1678D01*
X1492Y1677D02*
X1517Y1677D01*
X1555Y1677D02*
X1581Y1677D01*
X1492Y1676D02*
X1517Y1676D01*
X1555Y1676D02*
X1581Y1676D01*
X1492Y1675D02*
X1517Y1675D01*
X1555Y1675D02*
X1581Y1675D01*
X1492Y1674D02*
X1517Y1674D01*
X1555Y1674D02*
X1581Y1674D01*
X1492Y1673D02*
X1517Y1673D01*
X1555Y1673D02*
X1581Y1673D01*
X1492Y1672D02*
X1517Y1672D01*
X1555Y1672D02*
X1581Y1672D01*
X1492Y1671D02*
X1517Y1671D01*
X1555Y1671D02*
X1581Y1671D01*
X1492Y1670D02*
X1517Y1670D01*
X1555Y1670D02*
X1581Y1670D01*
X1492Y1669D02*
X1517Y1669D01*
X1555Y1669D02*
X1581Y1669D01*
X1492Y1668D02*
X1518Y1668D01*
X1555Y1668D02*
X1581Y1668D01*
X1492Y1667D02*
X1518Y1667D01*
X1554Y1667D02*
X1581Y1667D01*
X1492Y1666D02*
X1518Y1666D01*
X1554Y1666D02*
X1581Y1666D01*
X1492Y1665D02*
X1519Y1665D01*
X1553Y1665D02*
X1581Y1665D01*
X1492Y1664D02*
X1519Y1664D01*
X1553Y1664D02*
X1581Y1664D01*
X1492Y1663D02*
X1520Y1663D01*
X1552Y1663D02*
X1581Y1663D01*
X1492Y1662D02*
X1521Y1662D01*
X1552Y1662D02*
X1581Y1662D01*
X1492Y1661D02*
X1522Y1661D01*
X1551Y1661D02*
X1581Y1661D01*
X1492Y1660D02*
X1523Y1660D01*
X1550Y1660D02*
X1581Y1660D01*
X1492Y1659D02*
X1524Y1659D01*
X1549Y1659D02*
X1581Y1659D01*
X1492Y1658D02*
X1525Y1658D01*
X1547Y1658D02*
X1581Y1658D01*
X1492Y1657D02*
X1527Y1657D01*
X1546Y1657D02*
X1581Y1657D01*
X1492Y1656D02*
X1529Y1656D01*
X1543Y1656D02*
X1581Y1656D01*
X1492Y1655D02*
X1532Y1655D01*
X1540Y1655D02*
X1581Y1655D01*
X1492Y1654D02*
X1581Y1654D01*
X1492Y1653D02*
X1581Y1653D01*
X1492Y1652D02*
X1581Y1652D01*
X1492Y1651D02*
X1581Y1651D01*
X1492Y1650D02*
X1581Y1650D01*
X1492Y1649D02*
X1581Y1649D01*
X1492Y1648D02*
X1581Y1648D01*
X1492Y1647D02*
X1581Y1647D01*
X1492Y1646D02*
X1581Y1646D01*
X1492Y1645D02*
X1581Y1645D01*
X1492Y1644D02*
X1581Y1644D01*
X1492Y1643D02*
X1581Y1643D01*
X1492Y1642D02*
X1581Y1642D01*
X1492Y1641D02*
X1581Y1641D01*
X1492Y1640D02*
X1581Y1640D01*
X1492Y1639D02*
X1581Y1639D01*
X1492Y1638D02*
X1581Y1638D01*
X1492Y1637D02*
X1581Y1637D01*
X1492Y1636D02*
X1581Y1636D01*
X1492Y1635D02*
X1581Y1635D01*
X1492Y1634D02*
X1581Y1634D01*
X1492Y1633D02*
X1581Y1633D01*
X1492Y1632D02*
X1581Y1632D01*
X1492Y1631D02*
X1581Y1631D01*
X1492Y1630D02*
X1581Y1630D01*
X1492Y1629D02*
X1581Y1629D01*
X183Y1324D02*
X272Y1324D01*
X183Y1323D02*
X272Y1323D01*
X183Y1322D02*
X272Y1322D01*
X183Y1321D02*
X272Y1321D01*
X183Y1320D02*
X272Y1320D01*
X183Y1319D02*
X272Y1319D01*
X183Y1318D02*
X272Y1318D01*
X183Y1317D02*
X272Y1317D01*
X183Y1316D02*
X272Y1316D01*
X183Y1315D02*
X272Y1315D01*
X183Y1314D02*
X272Y1314D01*
X183Y1313D02*
X272Y1313D01*
X183Y1312D02*
X272Y1312D01*
X183Y1311D02*
X272Y1311D01*
X183Y1310D02*
X272Y1310D01*
X183Y1309D02*
X272Y1309D01*
X183Y1308D02*
X272Y1308D01*
X183Y1307D02*
X272Y1307D01*
X183Y1306D02*
X272Y1306D01*
X183Y1305D02*
X272Y1305D01*
X183Y1304D02*
X272Y1304D01*
X183Y1303D02*
X272Y1303D01*
X183Y1302D02*
X272Y1302D01*
X183Y1301D02*
X272Y1301D01*
X183Y1300D02*
X272Y1300D01*
X183Y1299D02*
X272Y1299D01*
X183Y1298D02*
X223Y1298D01*
X231Y1298D02*
X272Y1298D01*
X183Y1297D02*
X219Y1297D01*
X235Y1297D02*
X272Y1297D01*
X183Y1296D02*
X217Y1296D01*
X237Y1296D02*
X272Y1296D01*
X183Y1295D02*
X216Y1295D01*
X238Y1295D02*
X272Y1295D01*
X183Y1294D02*
X215Y1294D01*
X239Y1294D02*
X272Y1294D01*
X183Y1293D02*
X214Y1293D01*
X241Y1293D02*
X272Y1293D01*
X183Y1292D02*
X213Y1292D01*
X242Y1292D02*
X272Y1292D01*
X183Y1291D02*
X212Y1291D01*
X242Y1291D02*
X272Y1291D01*
X183Y1290D02*
X211Y1290D01*
X243Y1290D02*
X272Y1290D01*
X183Y1289D02*
X210Y1289D01*
X244Y1289D02*
X272Y1289D01*
X183Y1288D02*
X210Y1288D01*
X244Y1288D02*
X272Y1288D01*
X183Y1287D02*
X209Y1287D01*
X245Y1287D02*
X272Y1287D01*
X183Y1286D02*
X209Y1286D01*
X245Y1286D02*
X272Y1286D01*
X183Y1285D02*
X209Y1285D01*
X245Y1285D02*
X272Y1285D01*
X183Y1284D02*
X208Y1284D01*
X246Y1284D02*
X272Y1284D01*
X183Y1283D02*
X208Y1283D01*
X246Y1283D02*
X272Y1283D01*
X183Y1282D02*
X208Y1282D01*
X246Y1282D02*
X272Y1282D01*
X183Y1281D02*
X208Y1281D01*
X246Y1281D02*
X272Y1281D01*
X183Y1280D02*
X208Y1280D01*
X246Y1280D02*
X272Y1280D01*
X183Y1279D02*
X208Y1279D01*
X246Y1279D02*
X272Y1279D01*
X183Y1278D02*
X208Y1278D01*
X246Y1278D02*
X272Y1278D01*
X183Y1277D02*
X208Y1277D01*
X246Y1277D02*
X272Y1277D01*
X183Y1276D02*
X208Y1276D01*
X246Y1276D02*
X272Y1276D01*
X183Y1275D02*
X209Y1275D01*
X246Y1275D02*
X272Y1275D01*
X183Y1274D02*
X209Y1274D01*
X245Y1274D02*
X272Y1274D01*
X183Y1273D02*
X209Y1273D01*
X245Y1273D02*
X272Y1273D01*
X183Y1272D02*
X210Y1272D01*
X245Y1272D02*
X272Y1272D01*
X183Y1271D02*
X210Y1271D01*
X244Y1271D02*
X272Y1271D01*
X183Y1270D02*
X211Y1270D01*
X243Y1270D02*
X272Y1270D01*
X183Y1269D02*
X211Y1269D01*
X243Y1269D02*
X272Y1269D01*
X183Y1268D02*
X212Y1268D01*
X242Y1268D02*
X272Y1268D01*
X183Y1267D02*
X213Y1267D01*
X241Y1267D02*
X272Y1267D01*
X183Y1266D02*
X214Y1266D01*
X240Y1266D02*
X272Y1266D01*
X183Y1265D02*
X215Y1265D01*
X239Y1265D02*
X272Y1265D01*
X183Y1264D02*
X217Y1264D01*
X238Y1264D02*
X272Y1264D01*
X183Y1263D02*
X218Y1263D01*
X236Y1263D02*
X272Y1263D01*
X183Y1262D02*
X221Y1262D01*
X233Y1262D02*
X272Y1262D01*
X183Y1261D02*
X272Y1261D01*
X183Y1260D02*
X272Y1260D01*
X183Y1259D02*
X272Y1259D01*
X183Y1258D02*
X272Y1258D01*
X183Y1257D02*
X272Y1257D01*
X183Y1256D02*
X272Y1256D01*
X183Y1255D02*
X272Y1255D01*
X183Y1254D02*
X272Y1254D01*
X183Y1253D02*
X272Y1253D01*
X183Y1252D02*
X272Y1252D01*
X183Y1251D02*
X272Y1251D01*
X183Y1250D02*
X272Y1250D01*
X183Y1249D02*
X272Y1249D01*
X183Y1248D02*
X272Y1248D01*
X183Y1247D02*
X272Y1247D01*
X183Y1246D02*
X272Y1246D01*
X1599Y1246D02*
X1688Y1246D01*
X183Y1245D02*
X272Y1245D01*
X1599Y1245D02*
X1688Y1245D01*
X183Y1244D02*
X272Y1244D01*
X1599Y1244D02*
X1688Y1244D01*
X183Y1243D02*
X272Y1243D01*
X1599Y1243D02*
X1688Y1243D01*
X183Y1242D02*
X272Y1242D01*
X1599Y1242D02*
X1688Y1242D01*
X183Y1241D02*
X272Y1241D01*
X1599Y1241D02*
X1688Y1241D01*
X183Y1240D02*
X272Y1240D01*
X1599Y1240D02*
X1688Y1240D01*
X183Y1239D02*
X272Y1239D01*
X1599Y1239D02*
X1688Y1239D01*
X183Y1238D02*
X272Y1238D01*
X1599Y1238D02*
X1688Y1238D01*
X183Y1237D02*
X272Y1237D01*
X1599Y1237D02*
X1688Y1237D01*
X183Y1236D02*
X272Y1236D01*
X1599Y1236D02*
X1688Y1236D01*
X183Y1235D02*
X271Y1235D01*
X1599Y1235D02*
X1688Y1235D01*
X1599Y1234D02*
X1688Y1234D01*
X1599Y1233D02*
X1688Y1233D01*
X1599Y1232D02*
X1688Y1232D01*
X1599Y1231D02*
X1688Y1231D01*
X1599Y1230D02*
X1688Y1230D01*
X1599Y1229D02*
X1688Y1229D01*
X1599Y1228D02*
X1688Y1228D01*
X1599Y1227D02*
X1688Y1227D01*
X1599Y1226D02*
X1688Y1226D01*
X1599Y1225D02*
X1688Y1225D01*
X1599Y1224D02*
X1688Y1224D01*
X1599Y1223D02*
X1688Y1223D01*
X1599Y1222D02*
X1688Y1222D01*
X1599Y1221D02*
X1688Y1221D01*
X1599Y1220D02*
X1642Y1220D01*
X1645Y1220D02*
X1688Y1220D01*
X1599Y1219D02*
X1637Y1219D01*
X1651Y1219D02*
X1688Y1219D01*
X1599Y1218D02*
X1634Y1218D01*
X1653Y1218D02*
X1688Y1218D01*
X1599Y1217D02*
X1633Y1217D01*
X1655Y1217D02*
X1688Y1217D01*
X1599Y1216D02*
X1631Y1216D01*
X1656Y1216D02*
X1688Y1216D01*
X1599Y1215D02*
X1630Y1215D01*
X1657Y1215D02*
X1688Y1215D01*
X1599Y1214D02*
X1629Y1214D01*
X1658Y1214D02*
X1688Y1214D01*
X1599Y1213D02*
X1628Y1213D01*
X1659Y1213D02*
X1688Y1213D01*
X1599Y1212D02*
X1628Y1212D01*
X1659Y1212D02*
X1688Y1212D01*
X1599Y1211D02*
X1627Y1211D01*
X1660Y1211D02*
X1688Y1211D01*
X1599Y1210D02*
X1627Y1210D01*
X1661Y1210D02*
X1688Y1210D01*
X1599Y1209D02*
X1626Y1209D01*
X1661Y1209D02*
X1688Y1209D01*
X1599Y1208D02*
X1626Y1208D01*
X1662Y1208D02*
X1688Y1208D01*
X1599Y1207D02*
X1625Y1207D01*
X1662Y1207D02*
X1688Y1207D01*
X1599Y1206D02*
X1625Y1206D01*
X1662Y1206D02*
X1688Y1206D01*
X1599Y1205D02*
X1625Y1205D01*
X1662Y1205D02*
X1688Y1205D01*
X1599Y1204D02*
X1624Y1204D01*
X1663Y1204D02*
X1688Y1204D01*
X1599Y1203D02*
X1624Y1203D01*
X1663Y1203D02*
X1688Y1203D01*
X1599Y1202D02*
X1624Y1202D01*
X1663Y1202D02*
X1688Y1202D01*
X1599Y1201D02*
X1624Y1201D01*
X1663Y1201D02*
X1688Y1201D01*
X1599Y1200D02*
X1624Y1200D01*
X1663Y1200D02*
X1688Y1200D01*
X1599Y1199D02*
X1624Y1199D01*
X1663Y1199D02*
X1688Y1199D01*
X1599Y1198D02*
X1625Y1198D01*
X1663Y1198D02*
X1688Y1198D01*
X1599Y1197D02*
X1625Y1197D01*
X1662Y1197D02*
X1688Y1197D01*
X1599Y1196D02*
X1625Y1196D01*
X1662Y1196D02*
X1688Y1196D01*
X1599Y1195D02*
X1626Y1195D01*
X1662Y1195D02*
X1688Y1195D01*
X1599Y1194D02*
X1626Y1194D01*
X1661Y1194D02*
X1688Y1194D01*
X1599Y1193D02*
X1626Y1193D01*
X1661Y1193D02*
X1688Y1193D01*
X1599Y1192D02*
X1627Y1192D01*
X1660Y1192D02*
X1688Y1192D01*
X1599Y1191D02*
X1628Y1191D01*
X1660Y1191D02*
X1688Y1191D01*
X1599Y1190D02*
X1628Y1190D01*
X1659Y1190D02*
X1688Y1190D01*
X1599Y1189D02*
X1629Y1189D01*
X1658Y1189D02*
X1688Y1189D01*
X1599Y1188D02*
X1630Y1188D01*
X1657Y1188D02*
X1688Y1188D01*
X1599Y1187D02*
X1631Y1187D01*
X1656Y1187D02*
X1688Y1187D01*
X1599Y1186D02*
X1632Y1186D01*
X1655Y1186D02*
X1688Y1186D01*
X1599Y1185D02*
X1634Y1185D01*
X1653Y1185D02*
X1688Y1185D01*
X1599Y1184D02*
X1636Y1184D01*
X1651Y1184D02*
X1688Y1184D01*
X1599Y1183D02*
X1640Y1183D01*
X1647Y1183D02*
X1688Y1183D01*
X1599Y1182D02*
X1688Y1182D01*
X1599Y1181D02*
X1688Y1181D01*
X1599Y1180D02*
X1688Y1180D01*
X1599Y1179D02*
X1688Y1179D01*
X1599Y1178D02*
X1688Y1178D01*
X1599Y1177D02*
X1688Y1177D01*
X1599Y1176D02*
X1688Y1176D01*
X1599Y1175D02*
X1688Y1175D01*
X1599Y1174D02*
X1688Y1174D01*
X1599Y1173D02*
X1688Y1173D01*
X1599Y1172D02*
X1688Y1172D01*
X1599Y1171D02*
X1688Y1171D01*
X1599Y1170D02*
X1688Y1170D01*
X1599Y1169D02*
X1688Y1169D01*
X1599Y1168D02*
X1688Y1168D01*
X1599Y1167D02*
X1688Y1167D01*
X1599Y1166D02*
X1688Y1166D01*
X1599Y1165D02*
X1688Y1165D01*
X1599Y1164D02*
X1688Y1164D01*
X1599Y1163D02*
X1688Y1163D01*
X1599Y1162D02*
X1688Y1162D01*
X1599Y1161D02*
X1688Y1161D01*
X1599Y1160D02*
X1688Y1160D01*
X1599Y1159D02*
X1688Y1159D01*
X1599Y1158D02*
X1688Y1158D01*
X1599Y1157D02*
X1688Y1157D01*
X193Y718D02*
X282Y718D01*
X193Y717D02*
X282Y717D01*
X193Y716D02*
X282Y716D01*
X193Y715D02*
X282Y715D01*
X193Y714D02*
X282Y714D01*
X193Y713D02*
X282Y713D01*
X193Y712D02*
X282Y712D01*
X193Y711D02*
X282Y711D01*
X193Y710D02*
X282Y710D01*
X193Y709D02*
X282Y709D01*
X193Y708D02*
X282Y708D01*
X193Y707D02*
X282Y707D01*
X193Y706D02*
X282Y706D01*
X193Y705D02*
X282Y705D01*
X193Y704D02*
X282Y704D01*
X193Y703D02*
X282Y703D01*
X193Y702D02*
X282Y702D01*
X193Y701D02*
X282Y701D01*
X193Y700D02*
X282Y700D01*
X193Y699D02*
X282Y699D01*
X193Y698D02*
X282Y698D01*
X193Y697D02*
X282Y697D01*
X193Y696D02*
X282Y696D01*
X193Y695D02*
X282Y695D01*
X193Y694D02*
X282Y694D01*
X193Y693D02*
X282Y693D01*
X193Y692D02*
X234Y692D01*
X242Y692D02*
X282Y692D01*
X193Y691D02*
X230Y691D01*
X246Y691D02*
X282Y691D01*
X193Y690D02*
X228Y690D01*
X248Y690D02*
X282Y690D01*
X193Y689D02*
X226Y689D01*
X249Y689D02*
X282Y689D01*
X193Y688D02*
X225Y688D01*
X250Y688D02*
X282Y688D01*
X193Y687D02*
X224Y687D01*
X251Y687D02*
X282Y687D01*
X193Y686D02*
X223Y686D01*
X252Y686D02*
X282Y686D01*
X193Y685D02*
X222Y685D01*
X253Y685D02*
X282Y685D01*
X193Y684D02*
X222Y684D01*
X254Y684D02*
X282Y684D01*
X193Y683D02*
X221Y683D01*
X254Y683D02*
X282Y683D01*
X193Y682D02*
X221Y682D01*
X255Y682D02*
X282Y682D01*
X193Y681D02*
X220Y681D01*
X255Y681D02*
X282Y681D01*
X193Y680D02*
X220Y680D01*
X256Y680D02*
X282Y680D01*
X193Y679D02*
X219Y679D01*
X256Y679D02*
X282Y679D01*
X193Y678D02*
X219Y678D01*
X257Y678D02*
X282Y678D01*
X193Y677D02*
X219Y677D01*
X257Y677D02*
X282Y677D01*
X193Y676D02*
X219Y676D01*
X257Y676D02*
X282Y676D01*
X193Y675D02*
X219Y675D01*
X257Y675D02*
X282Y675D01*
X193Y674D02*
X219Y674D01*
X257Y674D02*
X282Y674D01*
X193Y673D02*
X219Y673D01*
X257Y673D02*
X282Y673D01*
X193Y672D02*
X219Y672D01*
X257Y672D02*
X282Y672D01*
X193Y671D02*
X219Y671D01*
X257Y671D02*
X282Y671D01*
X193Y670D02*
X219Y670D01*
X257Y670D02*
X282Y670D01*
X193Y669D02*
X219Y669D01*
X256Y669D02*
X282Y669D01*
X193Y668D02*
X220Y668D01*
X256Y668D02*
X282Y668D01*
X193Y667D02*
X220Y667D01*
X256Y667D02*
X282Y667D01*
X193Y666D02*
X220Y666D01*
X255Y666D02*
X282Y666D01*
X193Y665D02*
X221Y665D01*
X255Y665D02*
X282Y665D01*
X193Y664D02*
X221Y664D01*
X254Y664D02*
X282Y664D01*
X193Y663D02*
X222Y663D01*
X254Y663D02*
X282Y663D01*
X193Y662D02*
X223Y662D01*
X253Y662D02*
X282Y662D01*
X193Y661D02*
X224Y661D01*
X252Y661D02*
X282Y661D01*
X193Y660D02*
X225Y660D01*
X251Y660D02*
X282Y660D01*
X193Y659D02*
X226Y659D01*
X250Y659D02*
X282Y659D01*
X193Y658D02*
X227Y658D01*
X249Y658D02*
X282Y658D01*
X193Y657D02*
X229Y657D01*
X247Y657D02*
X282Y657D01*
X193Y656D02*
X231Y656D01*
X244Y656D02*
X282Y656D01*
X193Y655D02*
X282Y655D01*
X193Y654D02*
X282Y654D01*
X193Y653D02*
X282Y653D01*
X193Y652D02*
X282Y652D01*
X193Y651D02*
X282Y651D01*
X193Y650D02*
X282Y650D01*
X193Y649D02*
X282Y649D01*
X193Y648D02*
X282Y648D01*
X193Y647D02*
X282Y647D01*
X193Y646D02*
X282Y646D01*
X193Y645D02*
X282Y645D01*
X193Y644D02*
X282Y644D01*
X193Y643D02*
X282Y643D01*
X1606Y643D02*
X1694Y643D01*
X193Y642D02*
X282Y642D01*
X1606Y642D02*
X1694Y642D01*
X193Y641D02*
X282Y641D01*
X1606Y641D02*
X1694Y641D01*
X193Y640D02*
X282Y640D01*
X1606Y640D02*
X1694Y640D01*
X193Y639D02*
X282Y639D01*
X1606Y639D02*
X1694Y639D01*
X193Y638D02*
X282Y638D01*
X1606Y638D02*
X1694Y638D01*
X193Y637D02*
X282Y637D01*
X1606Y637D02*
X1694Y637D01*
X193Y636D02*
X282Y636D01*
X1606Y636D02*
X1694Y636D01*
X193Y635D02*
X282Y635D01*
X1606Y635D02*
X1694Y635D01*
X193Y634D02*
X282Y634D01*
X1606Y634D02*
X1694Y634D01*
X193Y633D02*
X282Y633D01*
X1606Y633D02*
X1694Y633D01*
X193Y632D02*
X282Y632D01*
X1606Y632D02*
X1694Y632D01*
X193Y631D02*
X282Y631D01*
X1606Y631D02*
X1694Y631D01*
X193Y630D02*
X282Y630D01*
X1606Y630D02*
X1694Y630D01*
X193Y629D02*
X282Y629D01*
X1606Y629D02*
X1694Y629D01*
X1606Y628D02*
X1694Y628D01*
X1606Y627D02*
X1694Y627D01*
X1606Y626D02*
X1694Y626D01*
X1606Y625D02*
X1694Y625D01*
X1606Y624D02*
X1694Y624D01*
X1606Y623D02*
X1694Y623D01*
X1606Y622D02*
X1694Y622D01*
X1606Y621D02*
X1694Y621D01*
X1606Y620D02*
X1694Y620D01*
X1606Y619D02*
X1694Y619D01*
X1606Y618D02*
X1694Y618D01*
X1606Y617D02*
X1646Y617D01*
X1654Y617D02*
X1694Y617D01*
X1606Y616D02*
X1642Y616D01*
X1658Y616D02*
X1694Y616D01*
X1606Y615D02*
X1640Y615D01*
X1660Y615D02*
X1694Y615D01*
X1606Y614D02*
X1639Y614D01*
X1661Y614D02*
X1694Y614D01*
X1606Y613D02*
X1637Y613D01*
X1663Y613D02*
X1694Y613D01*
X1606Y612D02*
X1636Y612D01*
X1664Y612D02*
X1694Y612D01*
X1606Y611D02*
X1635Y611D01*
X1665Y611D02*
X1694Y611D01*
X1606Y610D02*
X1635Y610D01*
X1665Y610D02*
X1694Y610D01*
X1606Y609D02*
X1634Y609D01*
X1666Y609D02*
X1694Y609D01*
X1606Y608D02*
X1633Y608D01*
X1667Y608D02*
X1694Y608D01*
X1606Y607D02*
X1633Y607D01*
X1667Y607D02*
X1694Y607D01*
X1606Y606D02*
X1632Y606D01*
X1668Y606D02*
X1694Y606D01*
X1606Y605D02*
X1632Y605D01*
X1668Y605D02*
X1694Y605D01*
X1606Y604D02*
X1632Y604D01*
X1668Y604D02*
X1694Y604D01*
X1606Y603D02*
X1631Y603D01*
X1669Y603D02*
X1694Y603D01*
X1606Y602D02*
X1631Y602D01*
X1669Y602D02*
X1694Y602D01*
X1606Y601D02*
X1631Y601D01*
X1669Y601D02*
X1694Y601D01*
X1606Y600D02*
X1631Y600D01*
X1669Y600D02*
X1694Y600D01*
X1606Y599D02*
X1631Y599D01*
X1669Y599D02*
X1694Y599D01*
X1606Y598D02*
X1631Y598D01*
X1669Y598D02*
X1694Y598D01*
X1606Y597D02*
X1631Y597D01*
X1669Y597D02*
X1694Y597D01*
X1606Y596D02*
X1631Y596D01*
X1669Y596D02*
X1694Y596D01*
X1606Y595D02*
X1631Y595D01*
X1669Y595D02*
X1694Y595D01*
X1606Y594D02*
X1631Y594D01*
X1669Y594D02*
X1694Y594D01*
X1606Y593D02*
X1632Y593D01*
X1668Y593D02*
X1694Y593D01*
X1606Y592D02*
X1632Y592D01*
X1668Y592D02*
X1694Y592D01*
X1606Y591D02*
X1633Y591D01*
X1667Y591D02*
X1694Y591D01*
X1606Y590D02*
X1633Y590D01*
X1667Y590D02*
X1694Y590D01*
X1606Y589D02*
X1634Y589D01*
X1666Y589D02*
X1694Y589D01*
X1606Y588D02*
X1634Y588D01*
X1666Y588D02*
X1694Y588D01*
X1606Y587D02*
X1635Y587D01*
X1665Y587D02*
X1694Y587D01*
X1606Y586D02*
X1636Y586D01*
X1664Y586D02*
X1694Y586D01*
X1606Y585D02*
X1637Y585D01*
X1663Y585D02*
X1694Y585D01*
X1606Y584D02*
X1638Y584D01*
X1662Y584D02*
X1694Y584D01*
X1606Y583D02*
X1639Y583D01*
X1661Y583D02*
X1694Y583D01*
X1606Y582D02*
X1641Y582D01*
X1659Y582D02*
X1694Y582D01*
X1606Y581D02*
X1643Y581D01*
X1657Y581D02*
X1694Y581D01*
X1606Y580D02*
X1694Y580D01*
X1606Y579D02*
X1694Y579D01*
X1606Y578D02*
X1694Y578D01*
X1606Y577D02*
X1694Y577D01*
X1606Y576D02*
X1694Y576D01*
X1606Y575D02*
X1694Y575D01*
X1606Y574D02*
X1694Y574D01*
X1606Y573D02*
X1694Y573D01*
X1606Y572D02*
X1694Y572D01*
X1606Y571D02*
X1694Y571D01*
X1606Y570D02*
X1694Y570D01*
X1606Y569D02*
X1694Y569D01*
X1606Y568D02*
X1694Y568D01*
X1606Y567D02*
X1694Y567D01*
X1606Y566D02*
X1694Y566D01*
X1606Y565D02*
X1694Y565D01*
X1606Y564D02*
X1694Y564D01*
X1606Y563D02*
X1694Y563D01*
X1606Y562D02*
X1694Y562D01*
X1606Y561D02*
X1694Y561D01*
X1606Y560D02*
X1694Y560D01*
X1606Y559D02*
X1694Y559D01*
X1606Y558D02*
X1694Y558D01*
X1606Y557D02*
X1694Y557D01*
X1606Y556D02*
X1694Y556D01*
X1606Y555D02*
X1694Y555D01*
X1606Y554D02*
X1694Y554D01*
X192Y202D02*
X281Y202D01*
X192Y201D02*
X281Y201D01*
X192Y200D02*
X281Y200D01*
X192Y199D02*
X281Y199D01*
X192Y198D02*
X281Y198D01*
X192Y197D02*
X281Y197D01*
X192Y196D02*
X281Y196D01*
X192Y195D02*
X281Y195D01*
X192Y194D02*
X281Y194D01*
X192Y193D02*
X281Y193D01*
X192Y192D02*
X281Y192D01*
X192Y191D02*
X281Y191D01*
X192Y190D02*
X281Y190D01*
X192Y189D02*
X281Y189D01*
X192Y188D02*
X281Y188D01*
X192Y187D02*
X281Y187D01*
X192Y186D02*
X281Y186D01*
X192Y185D02*
X281Y185D01*
X192Y184D02*
X281Y184D01*
X192Y183D02*
X281Y183D01*
X192Y182D02*
X281Y182D01*
X192Y181D02*
X281Y181D01*
X192Y180D02*
X281Y180D01*
X192Y179D02*
X281Y179D01*
X192Y178D02*
X281Y178D01*
X192Y177D02*
X281Y177D01*
X192Y176D02*
X232Y176D01*
X241Y176D02*
X281Y176D01*
X192Y175D02*
X228Y175D01*
X244Y175D02*
X281Y175D01*
X192Y174D02*
X227Y174D01*
X246Y174D02*
X281Y174D01*
X192Y173D02*
X225Y173D01*
X248Y173D02*
X281Y173D01*
X192Y172D02*
X224Y172D01*
X249Y172D02*
X281Y172D01*
X192Y171D02*
X223Y171D01*
X250Y171D02*
X281Y171D01*
X192Y170D02*
X222Y170D01*
X251Y170D02*
X281Y170D01*
X192Y169D02*
X221Y169D01*
X252Y169D02*
X281Y169D01*
X192Y168D02*
X220Y168D01*
X253Y168D02*
X281Y168D01*
X192Y167D02*
X220Y167D01*
X253Y167D02*
X281Y167D01*
X192Y166D02*
X219Y166D01*
X254Y166D02*
X281Y166D01*
X192Y165D02*
X219Y165D01*
X254Y165D02*
X281Y165D01*
X192Y164D02*
X218Y164D01*
X254Y164D02*
X281Y164D01*
X192Y163D02*
X218Y163D01*
X255Y163D02*
X281Y163D01*
X192Y162D02*
X218Y162D01*
X255Y162D02*
X281Y162D01*
X192Y161D02*
X218Y161D01*
X255Y161D02*
X281Y161D01*
X192Y160D02*
X217Y160D01*
X255Y160D02*
X281Y160D01*
X192Y159D02*
X217Y159D01*
X255Y159D02*
X281Y159D01*
X192Y158D02*
X217Y158D01*
X255Y158D02*
X281Y158D01*
X192Y157D02*
X217Y157D01*
X255Y157D02*
X281Y157D01*
X192Y156D02*
X217Y156D01*
X255Y156D02*
X281Y156D01*
X192Y155D02*
X218Y155D01*
X255Y155D02*
X281Y155D01*
X192Y154D02*
X218Y154D01*
X255Y154D02*
X281Y154D01*
X192Y153D02*
X218Y153D01*
X255Y153D02*
X281Y153D01*
X192Y152D02*
X218Y152D01*
X255Y152D02*
X281Y152D01*
X192Y151D02*
X219Y151D01*
X254Y151D02*
X281Y151D01*
X192Y150D02*
X219Y150D01*
X254Y150D02*
X281Y150D01*
X192Y149D02*
X220Y149D01*
X253Y149D02*
X281Y149D01*
X192Y148D02*
X220Y148D01*
X253Y148D02*
X281Y148D01*
X192Y147D02*
X221Y147D01*
X252Y147D02*
X281Y147D01*
X192Y146D02*
X222Y146D01*
X251Y146D02*
X281Y146D01*
X192Y145D02*
X222Y145D01*
X250Y145D02*
X281Y145D01*
X192Y144D02*
X224Y144D01*
X249Y144D02*
X281Y144D01*
X192Y143D02*
X225Y143D01*
X248Y143D02*
X281Y143D01*
X192Y142D02*
X226Y142D01*
X247Y142D02*
X281Y142D01*
X192Y141D02*
X228Y141D01*
X245Y141D02*
X281Y141D01*
X192Y140D02*
X231Y140D01*
X242Y140D02*
X281Y140D01*
X192Y139D02*
X281Y139D01*
X192Y138D02*
X281Y138D01*
X192Y137D02*
X281Y137D01*
X192Y136D02*
X281Y136D01*
X192Y135D02*
X281Y135D01*
X192Y134D02*
X281Y134D01*
X192Y133D02*
X281Y133D01*
X192Y132D02*
X281Y132D01*
X192Y131D02*
X281Y131D01*
X192Y130D02*
X281Y130D01*
X192Y129D02*
X281Y129D01*
X192Y128D02*
X281Y128D01*
X192Y127D02*
X281Y127D01*
X192Y126D02*
X281Y126D01*
X192Y125D02*
X281Y125D01*
X192Y124D02*
X281Y124D01*
X192Y123D02*
X281Y123D01*
X192Y122D02*
X281Y122D01*
X192Y121D02*
X281Y121D01*
X192Y120D02*
X281Y120D01*
X192Y119D02*
X281Y119D01*
X192Y118D02*
X281Y118D01*
X192Y117D02*
X281Y117D01*
X192Y116D02*
X281Y116D01*
X192Y115D02*
X281Y115D01*
X192Y114D02*
X281Y114D01*
X192Y113D02*
X281Y113D01*
D02*
G04 End of Mask1*
M02*